<mxfile host="app.diagrams.net" modified="2024-07-08T21:30:04.263Z" agent="Mozilla/5.0 (Windows NT 10.0; Win64; x64; rv:127.0) Gecko/20100101 Firefox/127.0" version="24.6.4" etag="en7ao0mjFDZUwUYLc4J-" type="github">
  <diagram name="Page-1" id="N6Xf3aNSx_Kv6TMhR8r-">
    <mxGraphModel>
      <root>
        <mxCell id="0" />
        <mxCell id="1" parent="0" />
      </root>
    </mxGraphModel>
  </diagram>
</mxfile>
